# xmcd CD database file
#
# Track frame offsets:
#	150
#	24650
#	38290
#	60855
#	69855
#	98635
#	122270
#	133572
#	147467
#	156712
#	187147
#
# Disc length: 2641 seconds
#
# Revision: 10
# Processed by: cddbd v1.5.2PL0 Copyright (c) Steve Scherf et al.
# Submitted via: CDex 1.79
#
DISCID=8d0a4f0b
DTITLE=Dave Brubeck - Greatest Hits
DYEAR=1967
DGENRE=Jazz
TTITLE0=Take Five
TTITLE1=I'm In A Dancing Mood
TTITLE2=In Your Own Sweet Way
TTITLE3=Camptown Races
TTITLE4=The Duke
TTITLE5=It's A Raggy Waltz
TTITLE6=Bossa Nova U.S.A.
TTITLE7=Trolley Song
TTITLE8=Unsquare Dance
TTITLE9=Blue Rondo A La Turk
TTITLE10=Theme From Mr. Broadway
EXTD=YEAR: 1967
EXTT0=
EXTT1=
EXTT2=
EXTT3=
EXTT4=
EXTT5=
EXTT6=
EXTT7=
EXTT8=
EXTT9=
EXTT10=
PLAYORDER=
